<svg xmlns="http://www.w3.org/2000/svg" version="1.1" xmlns:xlink="http://www.w3.org/1999/xlink" xmlns:svgjs="http://svgjs.dev/svgjs" width="2000" height="1500" viewBox="0 0 2000 1500"><rect width="2000" height="1500" fill="#ed1703"></rect><g transform="matrix(0.44563279857397503,0,0,0.44563279857397503,553.0748929346347,248.38709677419354)"><svg viewBox="0 0 221 248" data-background-color="#ed1703" preserveAspectRatio="xMidYMid meet" height="2244" width="2000" xmlns="http://www.w3.org/2000/svg" xmlns:xlink="http://www.w3.org/1999/xlink"><g id="tight-bounds" transform="matrix(1,0,0,1,0.32044339814211753,0.4000000000000057)"><svg viewBox="0 0 220.3591132037158 247.2" height="247.2" width="220.3591132037158"><g><svg viewBox="0 0 220.3591132037158 247.2" height="247.2" width="220.3591132037158"><g><svg viewBox="0 0 220.3591132037158 247.2" height="247.2" width="220.3591132037158"><g id="textblocktransform"><svg viewBox="0 0 220.3591132037158 247.2" height="247.2" width="220.3591132037158" id="textblock"><g><svg viewBox="0 0 220.3591132037158 247.2" height="247.2" width="220.3591132037158"><g transform="matrix(1,0,0,1,0,0)"><svg width="220.3591132037158" viewBox="2.256666666667 -40.3 36.193333333333 40.599999999999994" height="247.2" data-palette-color="#ffffff"><path d="M8.72-3.18L8.72 0.3Q5.45 0.05 3.95-1.56 2.45-3.18 2.35-6.58L2.35-6.58Q2.33-8 2.31-9.24 2.3-10.48 2.33-11.74 2.35-13 2.4-14.48L2.4-14.48 6.23-14.48Q6.13-12.25 6.11-10.21 6.1-8.18 6.23-6.08L6.23-6.08Q6.28-4.7 6.84-4.03 7.4-3.35 8.72-3.18L8.72-3.18ZM11.4 0.3L11.4 0.3 11.4-3.18Q12.63-3.38 13.15-4.04 13.68-4.7 13.78-6.08L13.78-6.08Q13.88-7.15 13.89-8.41 13.9-9.68 13.86-10.93 13.83-12.18 13.78-13.28L13.78-13.28Q13.73-15.28 12.98-16.28 12.23-17.28 10.53-17.7L10.53-17.7 7.75-18.38Q5.7-18.88 4.53-19.84 3.35-20.8 2.85-22.43 2.35-24.05 2.27-26.55L2.27-26.55Q2.25-28.18 2.26-29.94 2.27-31.7 2.3-33.5L2.3-33.5Q2.4-36.88 3.9-38.48 5.4-40.08 8.72-40.3L8.72-40.3 8.72-36.83Q7.45-36.65 6.89-35.99 6.33-35.33 6.28-33.95L6.28-33.95Q6.18-32.05 6.18-30.28 6.18-28.5 6.28-26.55L6.28-26.55Q6.33-24.4 6.88-23.39 7.43-22.38 8.78-22.05L8.78-22.05 11.4-21.45Q13.75-20.9 15.11-19.93 16.48-18.95 17.09-17.32 17.7-15.7 17.78-13.28L17.78-13.28Q17.82-12.23 17.82-11.06 17.82-9.9 17.8-8.75 17.78-7.6 17.75-6.58L17.75-6.58Q17.6-3.18 16.13-1.55 14.65 0.08 11.4 0.3ZM17.55-26.13L13.7-26.13Q13.78-28.43 13.79-30.3 13.8-32.18 13.73-33.95L13.73-33.95Q13.68-35.3 13.15-35.98 12.63-36.65 11.4-36.85L11.4-36.85 11.4-40.3Q14.58-40.05 16.03-38.45 17.48-36.85 17.6-33.45L17.6-33.45Q17.65-31.9 17.63-30.04 17.6-28.18 17.55-26.13L17.55-26.13ZM25.27-5.48L21.45-40 25.55-40 27.77-17.73 28.92-5.48 25.27-5.48ZM25.95 0L25.47-3.6 30.95-3.6 32.25-17.73 34.35-40 38.45-40 34.02 0 25.95 0Z" opacity="1" transform="matrix(1,0,0,1,0,0)" fill="#ffffff" class="wordmark-text-0" data-fill-palette-color="primary" id="text-0"></path></svg></g></svg></g></svg></g></svg></g></svg></g><defs></defs></svg><rect width="220.3591132037158" height="247.2" fill="none" stroke="none" visibility="hidden"></rect></g></svg></g></svg>